<?xml version="1.0" encoding="utf-8"?>
<!-- Generator: Adobe Illustrator 27.7.0, SVG Export Plug-In . SVG Version: 6.00 Build 0)  -->
<svg version="1.1" id="Layer_1" xmlns="http://www.w3.org/2000/svg" xmlns:xlink="http://www.w3.org/1999/xlink" x="0px" y="0px"
	 viewBox="0 0 1606 94" style="enable-background:new 0 0 1606 94;" xml:space="preserve">
<g>
	<path d="M54.8,84.8H64V94h-9.2h-9.2h-9.2v-9.2h-9.2v-9.2h-9.2v-9.2v-9.2v-9.2v-9.2v-9.2h9.2v-9.2h-9.2H8.7V11h9.2V1.8h9.2h9.2h9.2
		h9.2H64h9.2h9.2V11h-9.2v9.2H64h-9.2h-9.2v9.2h-9.2v9.2v9.2v9.2v9.2v9.2h9.2v9.2H54.8z M64,84.8v-9.2v-9.2h9.2v-9.2h9.2v9.2v9.2
		h-9.2v9.2H64z"/>
	<path d="M119.3,84.8h9.2V94h-9.2h-9.2h-9.2v-9.2h-9.2v-9.2v-9.2v-9.2h9.2v-9.2h9.2v9.2v9.2v9.2v9.2H119.3z M128.5,84.8v-9.2v-9.2
		v-9.2v-9.2h-9.2h-9.2v-9.2h9.2h9.2h9.2v9.2h9.2v9.2v9.2v9.2h-9.2v9.2H128.5z"/>
	<path d="M202.2,94H193v-9.2h-9.2V94h-9.2h-9.2v-9.2h-9.2v-9.2v-9.2v-9.2v-9.2h9.2v-9.2h9.2v9.2v9.2v9.2v9.2v9.2h9.2v-9.2v-9.2v-9.2
		v-9.2h9.2v-9.2h9.2v9.2v9.2v9.2v9.2v9.2h9.2V94H202.2z M211.4,84.8v-9.2v-9.2v-9.2v-9.2h9.2v-9.2h9.2v9.2v9.2v9.2v9.2h-9.2v9.2
		H211.4z"/>
	<path d="M239.1,94v-9.2v-9.2v-9.2v-9.2v-9.2h9.2v-9.2h9.2v9.2h9.2v-9.2h9.2h9.2v9.2v9.2h-9.2h-9.2h-9.2v9.2v9.2v9.2h-9.2V94H239.1z
		"/>
	<path d="M322,94h-9.2h-9.2v-9.2h9.2h9.2v-9.2h-9.2v-9.2h-9.2v-9.2h-9.2v-9.2h9.2v-9.2h9.2h9.2h9.2v9.2v9.2H322v-9.2h-9.2v9.2h9.2
		v9.2h9.2h9.2v9.2v9.2h-9.2V94H322z M303.6,84.8h-9.2v-9.2h9.2V84.8z"/>
	<path d="M386.5,94v-9.2v-9.2v-9.2v-9.2v-9.2h-9.2v9.2h-9.2v9.2v9.2v9.2V94h-9.2h-9.2v-9.2v-9.2v-9.2v-9.2v-9.2v-9.2v-9.2v-9.2V11
		h9.2V1.8h9.2V11v9.2v9.2v9.2v9.2h9.2v-9.2h9.2h9.2v9.2h9.2v9.2v9.2v9.2v9.2h-9.2V94H386.5z"/>
	<path d="M441.8,84.8h9.2V94h-9.2h-9.2h-9.2v-9.2h-9.2v-9.2v-9.2v-9.2h9.2v-9.2h9.2v9.2v9.2h9.2v9.2h-9.2v9.2H441.8z M441.8,66.3
		v-9.2v-9.2h-9.2v-9.2h9.2h9.2h9.2v9.2v9.2H451v9.2H441.8z M451,84.8v-9.2h9.2v9.2H451z"/>
	<path d="M487.9,94h-9.2v-9.2h-9.2v-9.2v-9.2v-9.2v-9.2v-9.2v-9.2v-9.2h-9.2V11h9.2h9.2V1.8h9.2V11v9.2v9.2v9.2v9.2v9.2v9.2v9.2v9.2
		h9.2V94H487.9z"/>
	<path d="M524.8,94h-9.2v-9.2h-9.2v-9.2v-9.2v-9.2v-9.2v-9.2v-9.2v-9.2h-9.2V11h9.2h9.2V1.8h9.2V11v9.2v9.2v9.2v9.2v9.2v9.2v9.2v9.2
		h9.2V94H524.8z"/>
	<path d="M569.2,94h-7.1v-7.1h-7.1v-7.1v-7.1H548v-7.1v-7.1v-7.1v-7.1v-7.1v-7.1h7.1v-7.1V16h7.1V8.9h7.1V16v7.1h-7.1v7.1v7.1v7.1
		v7.1v7.1v7.1v7.1v7.1h7.1v7.1h7.1V94H569.2z M569.2,8.9V1.8h7.1v7.1H569.2z"/>
	<path d="M600.4,85.1H592v-8.3h-8.3v-8.3v-8.3v-8.3v-8.3h-8.3v-8.3h8.3v-8.3v-8.3v-8.3h8.3V1.8h8.3v8.3v8.3v8.3v8.3h8.3v8.3h-8.3
		v8.3v8.3v8.3v8.3h8.3v8.3H600.4z"/>
	<path d="M667,85.1v-8.3v-8.3v-8.3v-8.3v-8.3h-8.3v8.3v8.3v8.3v8.3h-8.3v8.3H642v-8.3v-8.3v-8.3v-8.3v-8.3h-8.3v8.3v8.3v8.3v8.3
		h-8.3v8.3H617v-8.3v-8.3v-8.3v-8.3v-8.3v-8.3h8.3v8.3h8.3v-8.3h8.3h8.3v8.3h8.3v-8.3h8.3h8.3v8.3h8.3v8.3v8.3v8.3v8.3h-8.3v8.3H667
		z"/>
	<path d="M689.8,86.9v-7.1v-7.1h7.1v-7.1v-7.1v-7.1v-7.1v-7.1v-7.1v-7.1V16h-7.1V8.9h-7.1V1.8h7.1h7.1v7.1h7.1V16v7.1h7.1v7.1v7.1
		v7.1v7.1v7.1v7.1H704v7.1v7.1h-7.1v7.1H689.8z M682.7,94v-7.1h7.1V94H682.7z"/>
	<path d="M738.2,47h-7.8v-7.8v-7.8h7.8h7.8v7.8V47H738.2z M738.2,78.3h-7.8v-7.8v-7.8h7.8h7.8v7.8v7.8H738.2z"/>
	<path d="M761.7,94h-7.8v-7.8v-7.8v-7.8v-7.8h7.8v-7.8V47v-7.8v-7.8h7.8v-7.8v-7.8V7.8V0h7.8h7.8v7.8v7.8v7.8v7.8h-7.8v7.8V47v7.8
		v7.8h-7.8v7.8v7.8v7.8V94H761.7z"/>
	<path d="M800.9,94h-7.8v-7.8v-7.8v-7.8v-7.8h7.8v-7.8V47v-7.8v-7.8h7.8v-7.8v-7.8V7.8V0h7.8h7.8v7.8v7.8v7.8v7.8h-7.8v7.8V47v7.8
		v7.8h-7.8v7.8v7.8v7.8V94H800.9z"/>
	<path d="M858.8,93.9h-9.4v-9.4H840v-9.4v-9.4v-9.4v-9.4h-9.4v-9.4h9.4v-9.4v-9.4V9.4h9.4V0h9.4v9.4v9.4v9.4v9.4h9.4v9.4h-9.4v9.4
		v9.4v9.4v9.4h9.4v9.4H858.8z"/>
	<path d="M905.7,84.5h9.4v9.4h-9.4h-9.4H887v-9.4h-9.4v-9.4v-9.4v-9.4h9.4v-9.4h9.4v9.4v9.4h9.4v9.4h-9.4v9.4H905.7z M905.7,65.7
		v-9.4v-9.4h-9.4v-9.4h9.4h9.4h9.4v9.4v9.4h-9.4v9.4H905.7z M915.1,84.5v-9.4h9.4v9.4H915.1z"/>
	<path d="M933.9,93.9v-9.4v-9.4v-9.4v-9.4v-9.4h9.4v-9.4h9.4v9.4h9.4v-9.4h9.4h9.4v9.4v9.4h-9.4H962h-9.4v9.4v9.4v9.4h-9.4v9.4
		H933.9z"/>
	<path d="M1046.5,93.9v-9.4v-9.4v-9.4v-9.4v-9.4h-9.4v9.4v9.4v9.4v9.4h-9.4v9.4h-9.4v-9.4v-9.4v-9.4v-9.4v-9.4h-9.4v9.4v9.4v9.4v9.4
		h-9.4v9.4h-9.4v-9.4v-9.4v-9.4v-9.4v-9.4v-9.4h9.4v9.4h9.4v-9.4h9.4h9.4v9.4h9.4v-9.4h9.4h9.4v9.4h9.4v9.4v9.4v9.4v9.4h-9.4v9.4
		H1046.5z"/>
	<path d="M1084.1,37.5h-9.4v-9.4v-9.4h9.4V9.4h9.4v9.4v9.4h-9.4V37.5z M1093.4,93.9h-9.4v-9.4h-9.4v-9.4v-9.4v-9.4v-9.4h9.4v-9.4
		h9.4v9.4v9.4v9.4v9.4v9.4h9.4v9.4H1093.4z"/>
	<path d="M1112.2,93.9v-9.4v-9.4v-9.4v-9.4v-9.4h9.4v-9.4h9.4v9.4h9.4v9.4h-9.4v9.4v9.4v9.4h-9.4v9.4H1112.2z M1149.8,93.9v-9.4
		v-9.4v-9.4v-9.4v-9.4h-9.4v-9.4h9.4h9.4v9.4h9.4v9.4v9.4v9.4v9.4h-9.4v9.4H1149.8z"/>
	<path d="M1234.2,93.9h-9.4v-9.4h-9.4v-9.4v-9.4v-9.4v-9.4h-9.4v9.4h-9.4v9.4v9.4v9.4h9.4h9.4v9.4h-9.4h-9.4h-9.4v-9.4h-9.4v-9.4
		v-9.4v-9.4h9.4v-9.4h9.4v-9.4h9.4h9.4h9.4h9.4v9.4v9.4v9.4v9.4v9.4h9.4v9.4H1234.2z"/>
	<path d="M1271.8,93.9h-9.4v-9.4h-9.4v-9.4v-9.4v-9.4v-9.4v-9.4v-9.4v-9.4h-9.4V9.4h9.4h9.4V0h9.4v9.4v9.4v9.4v9.4v9.4v9.4v9.4v9.4
		v9.4h9.4v9.4H1271.8z"/>
	<path d="M1304.2,93.5h-7.6v-7.6v-7.6v-7.6v-7.6h7.6v-7.6v-7.6V40v-7.6h7.6v-7.6v-7.6V9.5V1.8h7.6h7.6v7.6v7.6v7.6v7.6h-7.6V40v7.6
		v7.6v7.6h-7.6v7.6v7.6v7.6v7.6H1304.2z"/>
</g>
</svg>
